<svg xmlns="http://www.w3.org/2000/svg" viewBox="0 0 96 96" fill="none">
  <rect width="96" height="96" rx="28" fill="#172033" />
  <path
    d="M28 63.5V51.5C28 49.567 29.567 48 31.5 48H37V63.5C37 65.433 35.433 67 33.5 67H31.5C29.567 67 28 65.433 28 63.5Z"
    fill="#D7A130"
  />
  <path
    d="M44.5 67C42.567 67 41 65.433 41 63.5V39.5C41 37.567 42.567 36 44.5 36H50C51.933 36 53.5 37.567 53.5 39.5V63.5C53.5 65.433 51.933 67 50 67H44.5Z"
    fill="#F3C255"
  />
  <path
    d="M57.5 63.5V31.5C57.5 29.567 59.067 28 61 28H66.5C68.433 28 70 29.567 70 31.5V63.5C70 65.433 68.433 67 66.5 67H61C59.067 67 57.5 65.433 57.5 63.5Z"
    fill="#F7E3A3"
  />
  <path d="M24 70.5C24 69.119 25.119 68 26.5 68H69.5C70.881 68 72 69.119 72 70.5V71C72 72.381 70.881 73.5 69.5 73.5H26.5C25.119 73.5 24 72.381 24 71V70.5Z" fill="#FCFAF3" />
</svg>
